<mxfile host="app.diagrams.net" modified="2020-05-20T08:48:17.372Z" agent="5.0 (Windows NT 10.0; Win64; x64) AppleWebKit/537.36 (KHTML, like Gecko) Chrome/81.0.4044.138 Safari/537.36 Edg/81.0.416.77" etag="0DgYSpbC9-KVriETULEA" version="13.1.3" type="github">
  <diagram id="1GL4U_6VFcoJwmi3sARw" name="第 1 页">
    <mxGraphModel dx="1230" dy="876" grid="1" gridSize="10" guides="1" tooltips="1" connect="1" arrows="1" fold="1" page="1" pageScale="1" pageWidth="827" pageHeight="1169" math="0" shadow="0">
      <root>
        <mxCell id="0" />
        <mxCell id="1" parent="0" />
        <mxCell id="bw1jB-szEbnQhYUeWQTg-3" value="" style="edgeStyle=orthogonalEdgeStyle;rounded=0;orthogonalLoop=1;jettySize=auto;html=1;" parent="1" source="bw1jB-szEbnQhYUeWQTg-1" target="bw1jB-szEbnQhYUeWQTg-2" edge="1">
          <mxGeometry relative="1" as="geometry" />
        </mxCell>
        <mxCell id="bw1jB-szEbnQhYUeWQTg-1" value="CPropertyMap::OnToolbarStringSetting()" style="rounded=1;whiteSpace=wrap;html=1;absoluteArcSize=1;arcSize=14;strokeWidth=2;" parent="1" vertex="1">
          <mxGeometry x="40" y="120" width="280" height="60" as="geometry" />
        </mxCell>
        <mxCell id="bw1jB-szEbnQhYUeWQTg-5" value="" style="edgeStyle=orthogonalEdgeStyle;rounded=0;orthogonalLoop=1;jettySize=auto;html=1;" parent="1" source="bw1jB-szEbnQhYUeWQTg-2" target="bw1jB-szEbnQhYUeWQTg-4" edge="1">
          <mxGeometry relative="1" as="geometry" />
        </mxCell>
        <mxCell id="bw1jB-szEbnQhYUeWQTg-2" value="void CDesignerCtrl::SetToolbarString()" style="rounded=1;whiteSpace=wrap;html=1;absoluteArcSize=1;arcSize=14;strokeWidth=2;" parent="1" vertex="1">
          <mxGeometry x="40" y="240" width="280" height="60" as="geometry" />
        </mxCell>
        <mxCell id="bw1jB-szEbnQhYUeWQTg-7" value="" style="edgeStyle=orthogonalEdgeStyle;rounded=0;orthogonalLoop=1;jettySize=auto;html=1;" parent="1" source="bw1jB-szEbnQhYUeWQTg-4" target="bw1jB-szEbnQhYUeWQTg-6" edge="1">
          <mxGeometry relative="1" as="geometry" />
        </mxCell>
        <mxCell id="bw1jB-szEbnQhYUeWQTg-4" value="CToolbarOption::put_ToolbarString()" style="rounded=1;whiteSpace=wrap;html=1;absoluteArcSize=1;arcSize=14;strokeWidth=2;" parent="1" vertex="1">
          <mxGeometry x="40" y="360" width="280" height="60" as="geometry" />
        </mxCell>
        <mxCell id="EJiVdf5w4102QHWNb290-2" value="" style="edgeStyle=orthogonalEdgeStyle;rounded=0;orthogonalLoop=1;jettySize=auto;html=1;" edge="1" parent="1" source="bw1jB-szEbnQhYUeWQTg-6" target="EJiVdf5w4102QHWNb290-1">
          <mxGeometry relative="1" as="geometry" />
        </mxCell>
        <mxCell id="bw1jB-szEbnQhYUeWQTg-6" value="CReport::WriteXmlExcelReportOption()" style="rounded=1;whiteSpace=wrap;html=1;absoluteArcSize=1;arcSize=14;strokeWidth=2;" parent="1" vertex="1">
          <mxGeometry x="40" y="480" width="280" height="60" as="geometry" />
        </mxCell>
        <mxCell id="EJiVdf5w4102QHWNb290-1" value="CToolbarOption::WriteXml()" style="rounded=1;whiteSpace=wrap;html=1;absoluteArcSize=1;arcSize=14;strokeWidth=2;" vertex="1" parent="1">
          <mxGeometry x="40" y="600" width="280" height="60" as="geometry" />
        </mxCell>
        <mxCell id="bw1jB-szEbnQhYUeWQTg-10" value="" style="edgeStyle=orthogonalEdgeStyle;rounded=0;orthogonalLoop=1;jettySize=auto;html=1;" parent="1" source="bw1jB-szEbnQhYUeWQTg-8" target="bw1jB-szEbnQhYUeWQTg-9" edge="1">
          <mxGeometry relative="1" as="geometry" />
        </mxCell>
        <mxCell id="EJiVdf5w4102QHWNb290-3" value="" style="edgeStyle=orthogonalEdgeStyle;rounded=0;orthogonalLoop=1;jettySize=auto;html=1;" edge="1" parent="1" source="bw1jB-szEbnQhYUeWQTg-8" target="bw1jB-szEbnQhYUeWQTg-9">
          <mxGeometry relative="1" as="geometry" />
        </mxCell>
        <mxCell id="bw1jB-szEbnQhYUeWQTg-8" value="CReport::ReadXmlExcelReportOption()" style="rounded=1;whiteSpace=wrap;html=1;absoluteArcSize=1;arcSize=14;strokeWidth=2;" parent="1" vertex="1">
          <mxGeometry x="437" y="240" width="280" height="60" as="geometry" />
        </mxCell>
        <mxCell id="bw1jB-szEbnQhYUeWQTg-12" value="" style="edgeStyle=orthogonalEdgeStyle;rounded=0;orthogonalLoop=1;jettySize=auto;html=1;" parent="1" source="bw1jB-szEbnQhYUeWQTg-9" target="bw1jB-szEbnQhYUeWQTg-11" edge="1">
          <mxGeometry relative="1" as="geometry" />
        </mxCell>
        <mxCell id="bw1jB-szEbnQhYUeWQTg-9" value="CToolbarOption::get_ToolbarString()" style="rounded=1;whiteSpace=wrap;html=1;absoluteArcSize=1;arcSize=14;strokeWidth=2;" parent="1" vertex="1">
          <mxGeometry x="437" y="360" width="280" height="60" as="geometry" />
        </mxCell>
        <mxCell id="bw1jB-szEbnQhYUeWQTg-14" value="" style="edgeStyle=orthogonalEdgeStyle;rounded=0;orthogonalLoop=1;jettySize=auto;html=1;" parent="1" source="bw1jB-szEbnQhYUeWQTg-11" target="bw1jB-szEbnQhYUeWQTg-13" edge="1">
          <mxGeometry relative="1" as="geometry" />
        </mxCell>
        <mxCell id="bw1jB-szEbnQhYUeWQTg-11" value="CDesignerCtrl::GetToolbarString()" style="rounded=1;whiteSpace=wrap;html=1;absoluteArcSize=1;arcSize=14;strokeWidth=2;" parent="1" vertex="1">
          <mxGeometry x="437" y="480" width="280" height="60" as="geometry" />
        </mxCell>
        <mxCell id="bw1jB-szEbnQhYUeWQTg-13" value="CPropertyMap::OnToolbarStringSetting()" style="rounded=1;whiteSpace=wrap;html=1;absoluteArcSize=1;arcSize=14;strokeWidth=2;" parent="1" vertex="1">
          <mxGeometry x="437" y="600" width="280" height="60" as="geometry" />
        </mxCell>
        <mxCell id="EJiVdf5w4102QHWNb290-6" style="edgeStyle=orthogonalEdgeStyle;rounded=0;orthogonalLoop=1;jettySize=auto;html=1;" edge="1" parent="1" source="EJiVdf5w4102QHWNb290-4" target="bw1jB-szEbnQhYUeWQTg-8">
          <mxGeometry relative="1" as="geometry" />
        </mxCell>
        <mxCell id="EJiVdf5w4102QHWNb290-4" value="CToolbarOption::ReadXml()" style="rounded=1;whiteSpace=wrap;html=1;absoluteArcSize=1;arcSize=14;strokeWidth=2;" vertex="1" parent="1">
          <mxGeometry x="437" y="120" width="280" height="60" as="geometry" />
        </mxCell>
        <mxCell id="bw1jB-szEbnQhYUeWQTg-15" value="写入流程" style="text;html=1;align=center;verticalAlign=middle;resizable=0;points=[];autosize=1;" parent="1" vertex="1">
          <mxGeometry x="130" y="80" width="60" height="20" as="geometry" />
        </mxCell>
        <mxCell id="bw1jB-szEbnQhYUeWQTg-16" value="读取流程" style="text;html=1;align=center;verticalAlign=middle;resizable=0;points=[];autosize=1;" parent="1" vertex="1">
          <mxGeometry x="547" y="84" width="60" height="20" as="geometry" />
        </mxCell>
      </root>
    </mxGraphModel>
  </diagram>
</mxfile>
